####
#
# OBJ File Generated by Meshlab
#
####
# Object test.obj
#
# Vertices: 5
# Faces: 1
#
####
mtllib ./test.obj.mtl

vn 0.0000000 0.0000000 3.0000000
v 0.6804500 1.1531010 0.0000000
vn 0.0000000 0.0000000 1.0000000
v -0.9964200 -0.1786390 0.0000000
vn 0.0000000 0.0000000 2.0000000
v -1.1434860 -0.9848000 -0.0000000
vn 0.0000000 0.0000000 2.0000000
v 0.5197400 -1.1435720 0.0000000
vn 0.0000000 0.0000000 1.0000000
v 1.2969520 -0.2353430 0.0000000
# 5 vertices, 0 vertices normals


usemtl material_0
vt 0.0000000 0.0000000
vt 0.0000000 -2057555441791761794952331264.0000000
vt 29112439383523328.0000000 0.0000000
f 2/1/2 3/1/3 4/1/4 5/2/5 1/3/1
# 1 faces, 3 coords texture

# End of File
